#!OML:ASF H:\Dans Jumps\Project 1\Capture day 1\Session 1\subject.ASF
:FULLY-SPECIFIED
:DEGREES
529
root 1.03523 17.6725 13.0941 6.17205 3.01043 -2.24259
lowerback -5.81409 -0.9683 0.651256
upperback 0.223789 -1.39196 1.58812
thorax 3.51569 -0.694391 1.15053
lowerneck -9.63872 -4.84904 -4.5202
upperneck 9.10277 -6.42974 4.89579
head 4.60908 -3.0329 1.79329
rclavicle -5.13113e-015 9.54166e-015
rhumerus -26.546 -18.9191 -81.3628
rradius 21.7669
rwrist 41.8722
rhand -18.5154 -25.7762
rfingers 7.12502
rthumb 7.77293 -55.6133
lclavicle -5.13113e-015 9.54166e-015
lhumerus -24.9552 -1.69505 91.382
lradius 17.5707
lwrist -0.352868
lhand -24.0086 -5.66666
lfingers 7.12502
lthumb 2.46908 24.2988
rfemur -12.2765 -3.59502 21.4931
rtibia 20.4346
rfoot -13.9284 2.0301
rtoes 17.7156
lfemur -6.47503 8.06597 -16.9656
ltibia 14.7009
lfoot -11.33 6.94351
ltoes -6.23981
530
root 1.03514 17.6728 13.0908 6.17803 2.98043 -2.24918
lowerback -5.82098 -0.965963 0.6502
upperback 0.224033 -1.3889 1.5884
thorax 3.5198 -0.692889 1.15156
lowerneck -9.58873 -4.84543 -4.49636
upperneck 8.98989 -6.42355 4.87806
head 4.56441 -3.03171 1.78669
rclavicle -2.21272e-014 2.78299e-015
rhumerus -26.5262 -18.9627 -81.3523
rradius 21.7507
rwrist 41.8999
rhand -18.5003 -25.7937
rfingers 7.12502
rthumb 7.78743 -55.6303
lclavicle -2.21272e-014 2.78299e-015
lhumerus -24.8888 -1.66568 91.3576
lradius 17.5858
lwrist -0.380312
lhand -24.0226 -5.68282
lfingers 7.12502
lthumb 2.45549 24.2828
rfemur -12.3002 -3.57372 21.5004
rtibia 20.4348
rfoot -13.9114 2.03748
rtoes 17.7378
lfemur -6.49312 8.07127 -16.9616
ltibia 14.7075
lfoot -11.3199 6.95903
ltoes -6.2184
531
root 1.0351 17.6731 13.0875 6.1851 2.95297 -2.25406
lowerback -5.82971 -0.964089 0.648613
upperback 0.226241 -1.38644 1.58723
thorax 3.52696 -0.69168 1.1513
lowerneck -9.55183 -4.83918 -4.46955
upperneck 8.8884 -6.41436 4.86202
head 4.52527 -3.02855 1.77996
rclavicle -5.46658e-016 -1.51076e-014
rhumerus -26.4999 -18.9991 -81.3491
rradius 21.739
rwrist 41.9158
rhand -18.4877 -25.8106
rfingers 7.12502
rthumb 7.7996 -55.6467
lclavicle -5.46658e-016 -1.51076e-014
lhumerus -24.8128 -1.6295 91.3278
lradius 17.5962
lwrist -0.414239
lhand -24.0334 -5.69085
lfingers 7.12502
lthumb 2.44506 24.2749
rfemur -12.3247 -3.55324 21.5064
rtibia 20.4344
rfoot -13.8951 2.04024
rtoes 17.7476
lfemur -6.51613 8.07741 -16.9602
ltibia 14.7191
lfoot -11.3112 6.97389
ltoes -6.20436
532
root 1.03499 17.6734 13.084 6.19195 2.92782 -2.26063
lowerback -5.83473 -0.962801 0.647478
upperback 0.228719 -1.38477 1.58698
thorax 3.53233 -0.690867 1.15173
lowerneck -9.5273 -4.83122 -4.44039
upperneck 8.79986 -6.40312 4.8446
head 4.49195 -3.0241 1.7722
rclavicle -1.90088e-015 -2.98177e-015
rhumerus -26.4709 -19.0212 -81.3525
rradius 21.7343
rwrist 41.9128
rhand -18.4754 -25.8275
rfingers 7.12502
rthumb 7.81147 -55.6632
lclavicle -1.90088e-015 -2.98177e-015
lhumerus -24.7307 -1.58913 91.2955
lradius 17.604
lwrist -0.447597
lhand -24.0373 -5.69421
lfingers 7.12502
lthumb 2.44135 24.2716
rfemur -12.3492 -3.52838 21.515
rtibia 20.4334
rfoot -13.8776 2.03431
rtoes 17.7427
lfemur -6.54202 8.08464 -16.9567
ltibia 14.7339
lfoot -11.3038 6.98708
ltoes -6.19924
533
root 1.03498 17.6737 13.0805 6.19954 2.90603 -2.26692
lowerback -5.84021 -0.961764 0.647515
upperback 0.232129 -1.38352 1.58609
thorax 3.5389 -0.690233 1.15078
lowerneck -9.5172 -4.82188 -4.41243
upperneck 8.728 -6.39047 4.8317
head 4.4663 -3.01838 1.76564
rclavicle -1.03989e-014 4.37326e-015
rhumerus -26.4371 -19.0367 -81.3618
rradius 21.734
rwrist 41.8944
rhand -18.4628 -25.8421
rfingers 7.12502
rthumb 7.82371 -55.6773
lclavicle -1.03989e-014 4.37326e-015
lhumerus -24.6446 -1.54893 91.2615
lradius 17.6131
lwrist -0.480387
lhand -24.0357 -5.6949
lfingers 7.12502
lthumb 2.44286 24.2709
rfemur -12.374 -3.50993 21.5237
rtibia 20.4325
rfoot -13.8615 2.02601
rtoes 17.712
lfemur -6.56974 8.09181 -16.9541
ltibia 14.7499
lfoot -11.2979 6.99799
ltoes -6.1964
534
root 1.03498 17.674 13.0771 6.2057 2.88508 -2.27335
lowerback -5.84524 -0.960845 0.647225
upperback 0.235932 -1.3824 1.58526
thorax 3.54563 -0.689675 1.15007
lowerneck -9.5112 -4.81146 -4.38747
upperneck 8.66773 -6.37678 4.82339
head 4.44509 -3.01185 1.76084
rclavicle -1.15419e-014 8.34896e-015
rhumerus -26.4035 -19.0416 -81.3762
rradius 21.7413
rwrist 41.8618
rhand -18.4513 -25.8559
rfingers 7.12502
rthumb 7.83478 -55.6907
lclavicle -1.15419e-014 8.34896e-015
lhumerus -24.5555 -1.51319 91.2275
lradius 17.6207
lwrist -0.508987
lhand -24.0245 -5.69458
lfingers 7.12502
lthumb 2.4537 24.2711
rfemur -12.3964 -3.48923 21.5321
rtibia 20.431
rfoot -13.845 2.01644
rtoes 17.6763
lfemur -6.59576 8.10175 -16.9509
ltibia 14.766
lfoot -11.2936 7.00555
ltoes -6.19412
535
root 1.03506 17.6742 13.0737 6.20965 2.86788 -2.28103
lowerback -5.8475 -0.960506 0.648443
upperback 0.238969 -1.38212 1.58496
thorax 3.55 -0.689511 1.14905
lowerneck -9.50546 -4.80033 -4.3669
upperneck 8.61811 -6.36246 4.81978
head 4.42748 -3.0048 1.75812
rclavicle -7.0817e-016 -7.55382e-015
rhumerus -26.3733 -19.04 -81.3928
rradius 21.7548
rwrist 41.8159
rhand -18.4464 -25.8704
rfingers 7.12502
rthumb 7.83952 -55.7051
lclavicle -7.0817e-016 -7.55382e-015
lhumerus -24.4675 -1.49585 91.1986
lradius 17.6282
lwrist -0.516036
lhand -24.0192 -5.69762
lfingers 7.12502
lthumb 2.45879 24.268
rfemur -12.4154 -3.47247 21.5413
rtibia 20.4293
rfoot -13.8296 2.00825
rtoes 17.641
lfemur -6.61889 8.10913 -16.9463
ltibia 14.7809
lfoot -11.2882 7.01273
ltoes -6.20346
536
root 1.03515 17.6743 13.0707 6.20978 2.85086 -2.28867
lowerback -5.84993 -0.960386 0.648686
upperback 0.244238 -1.38212 1.58498
thorax 3.55681 -0.689508 1.14884
lowerneck -9.50273 -4.78856 -4.35171
upperneck 8.57707 -6.34735 4.82142
head 4.41331 -2.99714 1.75778
rclavicle 1.17904e-014 -1.31198e-014
rhumerus -26.3436 -19.0317 -81.4126
rradius 21.7754
rwrist 41.7604
rhand -18.4427 -25.8853
rfingers 7.12502
rthumb 7.84304 -55.7198
lclavicle 1.17904e-014 -1.31198e-014
lhumerus -24.3764 -1.4922 91.1739
lradius 17.6324
lwrist -0.504853
lhand -24.0296 -5.71217
lfingers 7.12502
lthumb 2.44879 24.2535
rfemur -12.4283 -3.4545 21.55
rtibia 20.4267
rfoot -13.8152 1.99968
rtoes 17.6108
lfemur -6.63588 8.11591 -16.9411
ltibia 14.7944
lfoot -11.2818 7.01998
ltoes -6.21357
537
root 1.03529 17.6744 13.0677 6.2094 2.83612 -2.29691
lowerback -5.85325 -0.960947 0.650189
upperback 0.249827 -1.38313 1.58471
thorax 3.56444 -0.689979 1.14754
lowerneck -9.48974 -4.77578 -4.33912
upperneck 8.53273 -6.33107 4.82582
head 4.39656 -2.98901 1.75903
rclavicle 1.04113e-014 -1.2921e-014
rhumerus -26.3146 -19.0137 -81.4371
rradius 21.8013
rwrist 41.6927
rhand -18.4505 -25.897
rfingers 7.12502
rthumb 7.8355 -55.7318
lclavicle 1.04113e-014 -1.2921e-014
lhumerus -24.2853 -1.5036 91.1525
lradius 17.6367
lwrist -0.470811
lhand -24.0643 -5.74473
lfingers 7.12502
lthumb 2.41524 24.2213
rfemur -12.4395 -3.43689 21.558
rtibia 20.4233
rfoot -13.8014 1.99577
rtoes 17.6074
lfemur -6.65147 8.11874 -16.9352
ltibia 14.8067
lfoot -11.2731 7.02864
ltoes -6.22057
538
root 1.03543 17.6744 13.0649 6.2067 2.82281 -2.30646
lowerback -5.85762 -0.961785 0.652951
upperback 0.257154 -1.38465 1.58489
thorax 3.57444 -0.690689 1.14591
lowerneck -9.46829 -4.76227 -4.32719
upperneck 8.48171 -6.31361 4.82899
head 4.37629 -2.98058 1.76035
rclavicle -7.46685e-015 6.55989e-015
rhumerus -26.2867 -18.985 -81.4661
rradius 21.8358
rwrist 41.612
rhand -18.4549 -25.9149
rfingers 7.12502
rthumb 7.83128 -55.7498
lclavicle -7.46685e-015 6.55989e-015
lhumerus -24.1928 -1.52935 91.1349
lradius 17.6404
lwrist -0.412883
lhand -24.1119 -5.77615
lfingers 7.12502
lthumb 2.3693 24.1904
rfemur -12.4472 -3.42192 21.5676
rtibia 20.419
rfoot -13.7873 1.99347
rtoes 17.6094
lfemur -6.66302 8.11991 -16.9272
ltibia 14.8176
lfoot -11.2642 7.03783
ltoes -6.22094
539
root 1.03561 17.6745 13.0623 6.20305 2.81012 -2.31485
lowerback -5.8619 -0.96236 0.655702
upperback 0.263587 -1.38576 1.58365
thorax 3.58343 -0.691177 1.14287
lowerneck -9.43979 -4.7462 -4.31248
upperneck 8.42739 -6.29307 4.83096
head 4.35358 -2.97076 1.76126
rclavicle 1.90088e-015 -5.96354e-016
rhumerus -26.2633 -18.9504 -81.4983
rradius 21.8757
rwrist 41.5227
rhand -18.4625 -25.9304
rfingers 7.12502
rthumb 7.82396 -55.7656
lclavicle 1.90088e-015 -5.96354e-016
lhumerus -24.1047 -1.55832 91.1164
lradius 17.6474
lwrist -0.34436
lhand -24.1606 -5.80321
lfingers 7.12502
lthumb 2.32221 24.1639
rfemur -12.4527 -3.41027 21.5751
rtibia 20.4141
rfoot -13.7737 1.99741
rtoes 17.6331
lfemur -6.67159 8.11734 -16.9202
ltibia 14.8275
lfoot -11.2573 7.04952
ltoes -6.21626
540
root 1.03583 17.6746 13.0598 6.19931 2.79911 -2.32133
lowerback -5.86439 -0.963215 0.657077
upperback 0.266844 -1.38703 1.58172
thorax 3.58814 -0.691765 1.13993
lowerneck -9.40601 -4.72614 -4.2986
upperneck 8.37309 -6.26738 4.83417
head 4.32985 -2.95843 1.76317
rclavicle -1.06474e-014 -2.38542e-015
rhumerus -26.2469 -18.9097 -81.5312
rradius 21.9199
rwrist 41.4282
rhand -18.4705 -25.9452
rfingers 7.12502
rthumb 7.81621 -55.7808
lclavicle -1.06474e-014 -2.38542e-015
lhumerus -24.025 -1.58433 91.0969
lradius 17.6602
lwrist -0.270891
lhand -24.1966 -5.81263
lfingers 7.12502
lthumb 2.28745 24.1549
rfemur -12.4571 -3.40382 21.5801
rtibia 20.4089
rfoot -13.7602 2.00651
rtoes 17.6653
lfemur -6.67866 8.11334 -16.9153
ltibia 14.836
lfoot -11.2523 7.06115
ltoes -6.21156
